<svg xmlns="http://www.w3.org/2000/svg" width="1024" height="1024" viewBox="0 0 1024 1024">
<defs>
  <linearGradient id="bg" x1="0" y1="0" x2="1" y2="1"><stop offset="0" stop-color="#3A2F78"/><stop offset="1" stop-color="#1E1840"/></linearGradient>
  <linearGradient id="line" gradientUnits="userSpaceOnUse" x1="233.0" y1="791.0" x2="605.0" y2="119.0"><stop offset="0" stop-color="#2EE6CF"/><stop offset="1" stop-color="#9C8CFF"/></linearGradient>
</defs>
<rect width="1024" height="1024" fill="url(#bg)"/>
<rect x="148.0" y="148.0" width="170.0" height="170.0" rx="26" fill="#ffffff" fill-opacity="0.16"/><rect x="334.0" y="148.0" width="170.0" height="170.0" rx="26" fill="#ffffff" fill-opacity="0.16"/><rect x="520.0" y="148.0" width="170.0" height="170.0" rx="26" fill="#ffffff" fill-opacity="0.07"/><rect x="706.0" y="148.0" width="170.0" height="170.0" rx="26" fill="#ffffff" fill-opacity="0.07"/><rect x="148.0" y="334.0" width="170.0" height="170.0" rx="26" fill="#ffffff" fill-opacity="0.16"/><rect x="334.0" y="334.0" width="170.0" height="170.0" rx="26" fill="#ffffff" fill-opacity="0.16"/><rect x="520.0" y="334.0" width="170.0" height="170.0" rx="26" fill="#ffffff" fill-opacity="0.16"/><rect x="706.0" y="334.0" width="170.0" height="170.0" rx="26" fill="#ffffff" fill-opacity="0.07"/><rect x="148.0" y="520.0" width="170.0" height="170.0" rx="26" fill="#ffffff" fill-opacity="0.16"/><rect x="334.0" y="520.0" width="170.0" height="170.0" rx="26" fill="#ffffff" fill-opacity="0.16"/><rect x="520.0" y="520.0" width="170.0" height="170.0" rx="26" fill="#ffffff" fill-opacity="0.16"/><rect x="706.0" y="520.0" width="170.0" height="170.0" rx="26" fill="#ffffff" fill-opacity="0.16"/><rect x="148.0" y="706.0" width="170.0" height="170.0" rx="26" fill="#ffffff" fill-opacity="0.16"/><rect x="334.0" y="706.0" width="170.0" height="170.0" rx="26" fill="#ffffff" fill-opacity="0.16"/><rect x="520.0" y="706.0" width="170.0" height="170.0" rx="26" fill="#ffffff" fill-opacity="0.16"/><rect x="706.0" y="706.0" width="170.0" height="170.0" rx="26" fill="#ffffff" fill-opacity="0.16"/>
<path d="M 233.0 791.0 L 419.0 791.0 L 605.0 791.0 L 791.0 791.0 L 791.0 605.0 L 605.0 605.0 L 419.0 605.0 L 233.0 605.0 L 233.0 419.0 L 233.0 233.0 L 419.0 233.0 L 419.0 419.0 L 605.0 419.0" fill="none" stroke="url(#line)" stroke-width="70" stroke-linecap="round" stroke-linejoin="round"/>
<circle cx="233.0" cy="791.0" r="62" fill="#ffffff"/>
<text x="233.0" y="821.0" text-anchor="middle" font-family="Arial, Helvetica, sans-serif" font-weight="900" font-size="88" fill="#251E4A">1</text>
<g transform="translate(605.0 419.0)">
  <path d="M -78 -18 L -70 -118 L -18 -72 Z" fill="#FFC94D"/>
  <path d="M 78 -18 L 70 -118 L 18 -72 Z" fill="#FFC94D"/>
  <path d="M -64 -38 L -60 -92 L -32 -66 Z" fill="#FF9DB5"/>
  <path d="M 64 -38 L 60 -92 L 32 -66 Z" fill="#FF9DB5"/>
  <ellipse cx="0" cy="0" rx="92" ry="84" fill="#FFC94D"/>
  <ellipse cx="-32" cy="-8" rx="11" ry="17" fill="#251E4A"/>
  <ellipse cx="32" cy="-8" rx="11" ry="17" fill="#251E4A"/>
  <path d="M -12 18 L 12 18 L 0 31 Z" fill="#E86A8A"/>
  <path d="M 0 31 Q -10 44 -22 40 M 0 31 Q 10 44 22 40" fill="none" stroke="#251E4A" stroke-width="6" stroke-linecap="round"/>
  <path d="M -48 22 L -112 12 M -48 32 L -110 40 M 48 22 L 112 12 M 48 32 L 110 40" stroke="#251E4A" stroke-width="6" stroke-linecap="round"/>
</g>
</svg>